<?xml version="1.0" encoding="UTF-8"?>
<svg width="434px" height="37px" viewBox="0 0 434 37" version="1.1" xmlns="http://www.w3.org/2000/svg" xmlns:xlink="http://www.w3.org/1999/xlink">
    <!-- Generator: Sketch 55.2 (78181) - https://sketchapp.com -->
    <title>logo</title>
    <desc>Created with Sketch.</desc>
    <defs>
        <polygon id="path-1" points="0.119044305 0.306171447 22.4536585 0.306171447 22.4536585 25.765085 0.119044305 25.765085"></polygon>
    </defs>
    <g id="Website" stroke="none" stroke-width="1" fill="none" fill-rule="evenodd">
        <g id="Artboard" transform="translate(-644.000000, -405.000000)">
            <g id="Group-5" transform="translate(644.000000, 405.000000)">
                <g id="logo">
                    <polygon id="Fill-1" fill="#000000" points="23.1175438 5.21126761 10.3693559 17.4741753 10.3693559 5.21126761 0 5.21126761 0 35.9577465 10.3693559 35.9577465 10.3693559 27.637223 15.6854229 22.6654957 24.2412652 35.9577465 36.2529833 35.9577465 23.6776757 17.0898872 36.036883 5.21126761"></polygon>
                    <g id="Group-25" transform="translate(37.130452, 0.000000)">
                        <path d="M2.00593865,11.6346358 C3.25427886,11.850785 4.9330812,12.0237043 6.09532898,12.0237043 C6.74102218,12.0237043 7.38671539,11.9787453 8.11677918,11.9355154 C9.62339667,11.7625961 11.0008755,11.5066755 11.3882914,11.1591076 L11.3882914,36.1407638 L0.757598449,36.1407638 L0.757598449,11.1591076 C0.929783304,11.3302978 1.36024544,11.5066755 2.00593865,11.6346358 M0.11190524,4.84928111 C0.11190524,1.47908329 2.22116972,0.310148592 6.13665334,0.310148592 C10.0538588,0.310148592 12.2061695,1.47908329 12.2061695,4.84928111 C12.2061695,8.09151863 10.2260437,9.38495525 6.13665334,9.38495525 C1.8337538,9.38495525 0.11190524,8.21947894 0.11190524,4.84928111" id="Fill-2" fill="#000000"></path>
                        <path d="M38.0311429,23.8233738 C38.0311429,20.2767983 35.7066474,18.3764148 31.7481175,18.3764148 C27.5295886,18.3764148 25.5494627,20.2767983 25.5494627,23.8233738 C25.5494627,27.1935716 27.615681,28.8345761 31.7481175,28.8345761 C35.9649246,28.8345761 38.0311429,27.1935716 38.0311429,23.8233738 M28.1322356,36.7006766 C25.7233694,36.7006766 23.5280125,36.2683783 21.5478867,35.2758213 C17.5893568,33.3737086 15.0496302,29.6127131 15.0496302,23.8631453 C15.0496302,21.0134346 15.6522772,18.6357938 16.7284326,16.6057208 C19.0529281,12.6268469 23.1405966,10.5103143 28.3905128,10.5103143 C32.9086434,10.5103143 35.9649246,11.9351696 37.8159118,14.9612579 L37.8159118,3.0765121 L47.887004,3.0765121 L47.887004,36.140418 L38.849021,36.140418 L38.246374,31.7742048 C36.5675716,34.843523 33.4269199,36.7006766 28.1322356,36.7006766" id="Fill-4" fill="#000000"></path>
                        <path d="M50.6918953,27.8862865 L61.666958,27.8862865 C62.3970218,29.7002103 64.1619166,30.3486578 68.4234918,30.3486578 C71.9946057,30.3486578 73.1138073,29.57225 73.1138073,28.4915042 C73.1138073,28.1422071 72.8985762,27.8430567 72.5111603,27.6269075 C71.7793746,27.1496501 69.6701101,26.933501 65.238072,26.7623108 C61.8821891,26.5893915 59.2994163,26.2418236 57.2762442,25.7247948 C53.231622,24.6872788 51.5958658,22.6987065 51.5958658,19.2835496 C51.5958658,13.7968191 56.41532,10.3384325 66.1420424,10.3384325 C75.6948582,10.3384325 80.8173577,12.9754523 82.7974835,19.0674004 L72.3389754,19.0674004 C71.650236,17.2102468 69.2826942,16.6465298 65.8837652,16.6465298 C62.269605,16.6465298 61.3225883,17.426396 61.3225883,18.4189529 C61.3225883,18.7647916 61.5378194,19.1123595 62.0113278,19.3285086 C62.9152983,19.8040368 65.0228409,20.0616866 68.9400464,20.2328768 C72.5111603,20.4092545 75.3091642,20.753364 77.3753824,21.3136226 C81.4630509,22.3943684 82.9696684,24.4278998 82.9696684,27.8430567 C82.9696684,29.6552513 82.4100676,31.2132545 81.3339123,32.59488 C79.1816016,35.3200887 74.7495634,36.9610931 67.4334289,36.9610931 C57.9649837,36.9610931 51.9402356,34.4952634 50.6918953,27.8862865" id="Fill-6" fill="#000000"></path>
                        <polygon id="Fill-8" fill="#000000" points="116.503874 36.140418 105.917949 36.140418 105.917949 14.22808 95.9329496 14.22808 95.9329496 5.14981492 126.833244 5.14981492 126.833244 14.22808 116.503874 14.22808"></polygon>
                        <path d="M144.398165,29.6998645 C146.939614,28.6623485 148.573648,26.8466955 148.573648,24.8598523 L148.573648,24.6004733 C147.884909,25.2921506 146.206106,25.7659496 143.495917,26.1135175 C140.310497,26.4143971 138.889972,26.6737761 138.072094,27.1493043 C137.383354,27.5383728 136.99766,28.05886 136.99766,28.7470789 L136.99766,28.792038 C136.99766,29.8727838 137.901631,30.5212313 140.224404,30.5212313 C141.731022,30.5212313 143.149825,30.2601231 144.398165,29.6998645 M136.179782,36.9607473 C129.509341,36.9607473 126.151736,34.6712953 126.151736,29.9592435 L126.151736,29.9160136 C126.151736,26.9781141 127.400076,24.7716634 130.111988,23.5197275 C130.928144,23.130659 131.789068,22.7865495 132.693039,22.5704003 C134.544026,22.0499131 137.082031,21.7058036 141.30056,21.4014656 C143.323732,21.2302755 144.787303,21.0971276 145.81869,20.9259375 C147.971001,20.6250578 148.530602,20.1927595 148.530602,19.3713926 C148.530602,18.2041871 147.497493,17.209901 143.754194,17.209901 C139.193017,17.209901 137.643353,18.2906468 137.471169,20.1927595 L126.883522,20.1927595 C127.615307,13.4921353 133.424824,10.3813165 143.280686,10.3813165 C153.610055,10.3813165 158.51388,13.1912556 158.51388,21.3132768 L158.51388,36.1411097 L149.735896,36.1411097 L148.788879,31.0849483 C146.894846,34.5398766 142.764131,36.9607473 136.179782,36.9607473" id="Fill-10" fill="#000000"></path>
                        <polygon id="Fill-12" fill="#000000" points="173.198665 29.9599351 173.198665 36.1400722 163.043202 36.1400722 163.043202 3.07616626 173.198665 3.07616626 173.198665 20.6655209 183.870683 11.0736855 196.223224 11.0736855 185.72167 20.6655209 196.565872 36.1400722 184.731607 36.1400722 177.890703 25.7251407"></polygon>
                        <path d="M205.742292,21.0978193 L218.909268,21.0978193 C218.265296,18.5074876 216.28517,17.5114723 212.541872,17.5114723 C208.667712,17.5114723 206.56017,18.7634083 205.742292,21.0978193 M211.896178,36.961439 C205.613153,36.961439 201.525485,35.664544 198.985758,33.330133 C196.446031,30.9974512 195.455968,27.8866323 195.455968,24.2553263 C195.455968,21.5733474 196.101662,19.3288545 197.306956,17.1673628 C199.84496,12.9308391 204.838321,10.3370491 212.669288,10.3370491 C216.459077,10.3370491 219.554961,10.8990369 221.967271,12.0662424 C226.871095,14.3124646 229.195591,18.4192988 229.195591,23.6916093 L229.195591,26.157439 L205.568385,26.157439 C206.214078,28.6630401 208.282018,29.8717463 212.541872,29.8717463 C215.768616,29.8717463 217.103048,29.2232988 217.920927,28.1425529 L228.98036,28.1425529 C226.829771,34.4108788 221.40767,36.961439 211.896178,36.961439" id="Fill-14" fill="#000000"></path>
                        <path d="M290.2625,20.8951578 C290.2625,15.8096002 287.268205,13.6014203 282.428089,13.5893159 C282.414314,13.5893159 261.307894,13.5305234 261.292398,13.5305234 C256.385129,13.5305234 253.416662,15.8666636 253.416662,20.7914062 L253.416662,20.8363652 C253.416662,25.5466879 256.342083,27.8378691 261.24763,27.8378691 C261.261404,27.8378691 282.369546,27.8966617 282.383321,27.8966617 C287.266483,27.8845573 290.2625,25.8510259 290.2625,20.8951578 M251.39349,35.2699421 C245.799204,32.9372602 242.699877,28.2701674 242.699877,20.8363652 L242.699877,20.7499056 C242.699877,17.2915189 243.517755,14.3536194 245.067419,11.9327487 C248.252839,7.00627689 253.976263,4.36925704 261.37849,4.36925704 L282.490075,4.36925704 C286.093904,4.37271543 289.312039,5.01943374 292.06011,6.27136972 C297.654395,8.86343054 300.968954,13.7466725 300.968954,20.7066757 L300.968954,20.8778659 C300.968954,24.5091719 300.194122,27.4903012 298.644458,29.9111719 C295.548575,34.6993083 289.881971,36.9939478 282.412592,36.9991354 L261.292398,36.9991354 C257.504331,36.9991354 254.232819,36.4371476 251.39349,35.2699421" id="Fill-16" fill="#000000"></path>
                        <polygon id="Fill-18" fill="#000000" points="301.901852 11.0738584 313.049099 11.0738584 319.504309 24.9437182 326.217797 11.0738584 337.365044 11.0738584 324.538994 36.1402451 314.125254 36.1402451"></polygon>
                        <path d="M346.969171,21.0978193 L360.136147,21.0978193 C359.490454,18.5074876 357.51205,17.5114723 353.768751,17.5114723 C349.894592,17.5114723 347.787049,18.7634083 346.969171,21.0978193 M353.123058,36.961439 C346.840033,36.961439 342.752364,35.664544 340.210916,33.330133 C337.672911,30.9974512 336.682848,27.8866323 336.682848,24.2553263 C336.682848,21.5733474 337.328541,19.3288545 338.533835,17.1673628 C341.07184,12.9308391 346.065201,10.3370491 353.896168,10.3370491 C357.685957,10.3370491 360.78184,10.8990369 363.19415,12.0662424 C368.097975,14.3124646 370.42247,18.4192988 370.42247,23.6916093 L370.42247,26.157439 L346.795265,26.157439 C347.440958,28.6630401 349.508898,29.8717463 353.768751,29.8717463 C356.995495,29.8717463 358.329928,29.2232988 359.147806,28.1425529 L370.207239,28.1425529 C368.056651,34.4108788 362.634549,36.961439 353.123058,36.961439" id="Fill-20" fill="#000000"></path>
                        <g id="Group-24" transform="translate(373.799467, 10.375160)">
                            <mask id="mask-2" fill="white">
                                <use xlink:href="#path-1"></use>
                            </mask>
                            <g id="Clip-23"></g>
                            <path d="M0.119044305,0.698698335 L8.85398204,0.698698335 L10.1040441,7.91635134 C11.0923852,2.81696018 14.0195277,0.306171447 19.7429523,0.306171447 L22.4548638,0.306171447 L22.4548638,10.6381017 L18.1071962,10.6381017 C16.1287922,10.6381017 14.6652209,10.8974807 13.6321118,11.2865492 C11.5658935,12.1943757 10.9202003,14.2244487 10.9202003,17.8557547 L10.9202003,25.765085 L0.119044305,25.765085 L0.119044305,0.698698335 Z" id="Fill-22" fill="#000000" mask="url(#mask-2)"></path>
                        </g>
                    </g>
                </g>
            </g>
        </g>
    </g>
</svg>